<?xml version="1.0" encoding="UTF-8" standalone="no"?>
<svg
   xmlns:dc="http://purl.org/dc/elements/1.1/"
   xmlns:cc="http://creativecommons.org/ns#"
   xmlns:rdf="http://www.w3.org/1999/02/22-rdf-syntax-ns#"
   xmlns:svg="http://www.w3.org/2000/svg"
   xmlns="http://www.w3.org/2000/svg"
   xmlns:sodipodi="http://sodipodi.sourceforge.net/DTD/sodipodi-0.dtd"
   xmlns:inkscape="http://www.inkscape.org/namespaces/inkscape"
   inkscape:version="1.0rc1 (09960d6f05, 2020-04-09)"
   sodipodi:docname="logo-entwurf.svg"
   id="svg8"
   version="1.1"
   viewBox="0 0 210 297"
   height="297mm"
   width="210mm">
  <defs
     id="defs2" />
  <sodipodi:namedview
     inkscape:document-rotation="0"
     inkscape:window-maximized="1"
     inkscape:window-y="444"
     inkscape:window-x="0"
     inkscape:window-height="1043"
     inkscape:window-width="1920"
     showgrid="false"
     inkscape:current-layer="layer2"
     inkscape:document-units="mm"
     inkscape:cy="686.44767"
     inkscape:cx="358.8578"
     inkscape:zoom="1.1032019"
     inkscape:pageshadow="2"
     inkscape:pageopacity="0.0"
     borderopacity="1.0"
     bordercolor="#666666"
     pagecolor="#ffffff"
     id="base" />
  <metadata
     id="metadata5">
    <rdf:RDF>
      <cc:Work
         rdf:about="">
        <dc:format>image/svg+xml</dc:format>
        <dc:type
           rdf:resource="http://purl.org/dc/dcmitype/StillImage" />
        <dc:title />
      </cc:Work>
    </rdf:RDF>
  </metadata>
  <g
     inkscape:label="Layer 2"
     id="layer2"
     inkscape:groupmode="layer">
    <path
       sodipodi:nodetypes="scssscsccsccs"
       inkscape:connector-curvature="0"
       id="path851-1-0"
       style="font-style:normal;font-variant:normal;font-weight:bold;font-stretch:normal;font-size:50.5546px;line-height:1.25;font-family:Comfortaa;-inkscape-font-specification:'Comfortaa, Bold';font-variant-ligatures:normal;font-variant-caps:normal;font-variant-numeric:normal;font-feature-settings:normal;text-align:start;letter-spacing:0px;word-spacing:0px;writing-mode:lr-tb;text-anchor:start;fill:#8db7f0;fill-opacity:1;stroke:none;stroke-width:1.79647;stroke-opacity:1"
       d="m 140.21829,132.95533 c -3.83248,0 -7.25776,-0.83835 -10.27584,-2.51506 -3.01806,-1.72462 -5.36546,-4.09596 -7.04218,-7.11403 -1.67671,-3.01807 -2.51506,-6.44335 -2.51506,-10.27583 0,-3.88038 0.83835,-7.32961 2.51506,-10.34767 1.67672,-3.018067 4.02412,-5.365467 7.04218,-7.042177 3.01808,-1.724617 6.44336,-2.586927 10.27584,-2.586927 3.78456,0 7.16194,0.86231 10.1321,2.586927 3.01808,1.67671 5.36547,4.02411 7.04217,7.042177 1.72462,3.01806 2.58694,6.46729 2.58694,10.34767 0,3.83248 -0.83837,7.25776 -2.51508,10.27583 -1.67671,3.01807 -4.0241,5.38941 -7.04218,7.11403 -2.97016,1.67671 -6.37148,2.51506 -10.20395,2.51506 z" />
    <path
       sodipodi:nodetypes="scssscsccsccs"
       inkscape:connector-curvature="0"
       id="path851-1-5-3"
       style="font-style:normal;font-variant:normal;font-weight:bold;font-stretch:normal;font-size:50.5546px;line-height:1.25;font-family:Comfortaa;-inkscape-font-specification:'Comfortaa, Bold';font-variant-ligatures:normal;font-variant-caps:normal;font-variant-numeric:normal;font-feature-settings:normal;text-align:start;letter-spacing:0px;word-spacing:0px;writing-mode:lr-tb;text-anchor:start;fill:#8db7f0;fill-opacity:1;stroke:none;stroke-width:1.79647;stroke-opacity:1"
       d="m 113.67368,132.64258 c -3.83248,0 -7.25776,-0.83835 -10.27584,-2.51506 -3.01806,-1.72462 -5.365449,-4.09596 -7.042169,-7.11403 -1.676712,-3.01807 -2.515062,-6.44335 -2.515062,-10.27583 0,-3.88038 0.83835,-7.32961 2.515062,-10.34767 1.67672,-3.018077 4.024109,-5.365467 7.042169,-7.042177 3.01808,-1.724617 6.44336,-2.586927 10.27584,-2.586927 3.78456,0 7.16194,0.86231 10.1321,2.586927 3.01808,1.67671 5.36547,4.0241 7.04218,7.042177 1.72462,3.01806 2.58694,6.46729 2.58694,10.34767 0,3.83248 -0.83837,7.25776 -2.51508,10.27583 -1.67672,3.01807 -4.02411,5.38941 -7.04219,7.11403 -2.97016,1.67671 -6.37148,2.51506 -10.20395,2.51506 z" />
    <path
       sodipodi:nodetypes="scssscsccsccs"
       inkscape:connector-curvature="0"
       id="path851-1-5-5-4-9"
       style="font-style:normal;font-variant:normal;font-weight:bold;font-stretch:normal;font-size:50.5546px;line-height:1.25;font-family:Comfortaa;-inkscape-font-specification:'Comfortaa, Bold';font-variant-ligatures:normal;font-variant-caps:normal;font-variant-numeric:normal;font-feature-settings:normal;text-align:start;letter-spacing:0px;word-spacing:0px;writing-mode:lr-tb;text-anchor:start;fill:#8db7f0;fill-opacity:1;stroke:none;stroke-width:1.79647;stroke-opacity:1"
       d="m 51.46141,133.19022 c -3.83248,0 -7.25776,-0.83835 -10.27583,-2.51507 -3.01806,-1.72461 -5.36545,-4.09595 -7.04217,-7.11403 -1.67671,-3.01806 -2.51506,-6.44334 -2.51506,-10.27582 0,-3.88038 0.83835,-7.32961 2.51506,-10.34768 1.67672,-3.018067 4.02411,-5.365467 7.04217,-7.042177 3.01807,-1.724607 6.44335,-2.586927 10.27583,-2.586927 3.78456,0 7.16194,0.86232 10.1321,2.586927 3.01808,1.67671 5.36547,4.02411 7.04217,7.042177 1.72462,3.01807 2.58694,6.4673 2.58694,10.34768 0,3.83248 -0.83837,7.25776 -2.51508,10.27582 -1.67671,3.01808 -4.02409,5.38942 -7.04218,7.11403 -2.97016,1.67672 -6.37148,2.51507 -10.20395,2.51507 z" />
    <text
       id="text1062"
       y="269.8241"
       x="146.02963"
       style="font-style:normal;font-variant:normal;font-weight:normal;font-stretch:normal;font-size:10.5833px;line-height:1.25;font-family:'Latin Modern Math';-inkscape-font-specification:'Latin Modern Math';letter-spacing:0px;word-spacing:0px;fill:#000000;fill-opacity:1;stroke:none;stroke-width:0.264583"
       xml:space="preserve"><tspan
         style="stroke-width:0.264583"
         y="269.8241"
         x="146.02963"
         id="tspan1060"
         sodipodi:role="line" /></text>
    <path
       sodipodi:nodetypes="scssscsccsccs"
       inkscape:connector-curvature="0"
       id="path851-1-0-0"
       style="font-style:normal;font-variant:normal;font-weight:bold;font-stretch:normal;font-size:50.5546px;line-height:1.25;font-family:Comfortaa;-inkscape-font-specification:'Comfortaa, Bold';font-variant-ligatures:normal;font-variant-caps:normal;font-variant-numeric:normal;font-feature-settings:normal;text-align:start;letter-spacing:0px;word-spacing:0px;writing-mode:lr-tb;text-anchor:start;fill:#7eae0e;fill-opacity:1;stroke:none;stroke-width:1.79647;stroke-opacity:1"
       d="m 143.18505,74.587891 c -3.83249,0 -7.25777,-0.83835 -10.27584,-2.51506 -3.01806,-1.72462 -5.36546,-4.09596 -7.04218,-7.11403 -1.67671,-3.01807 -2.51506,-6.44335 -2.51506,-10.27583 0,-3.88038 0.83835,-7.32961 2.51506,-10.34767 1.67672,-3.018061 4.02412,-5.365461 7.04218,-7.042171 3.01807,-1.72462 6.44335,-2.58693 10.27584,-2.58693 3.78456,0 7.16194,0.86231 10.1321,2.58693 3.01808,1.67671 5.36546,4.02411 7.04217,7.042171 1.72461,3.01806 2.58694,6.46729 2.58694,10.34767 0,3.83248 -0.83838,7.25776 -2.51509,10.27583 -1.6767,3.01807 -4.02409,5.38941 -7.04217,7.11403 -2.97016,1.67671 -6.37149,2.51506 -10.20395,2.51506 z" />
    <path
       sodipodi:nodetypes="scssscsccsccs"
       inkscape:connector-curvature="0"
       id="path851-1-5-3-8"
       style="font-style:normal;font-variant:normal;font-weight:bold;font-stretch:normal;font-size:50.5546px;line-height:1.25;font-family:Comfortaa;-inkscape-font-specification:'Comfortaa, Bold';font-variant-ligatures:normal;font-variant-caps:normal;font-variant-numeric:normal;font-feature-settings:normal;text-align:start;letter-spacing:0px;word-spacing:0px;writing-mode:lr-tb;text-anchor:start;fill:#7eae0e;fill-opacity:1;stroke:none;stroke-width:1.79647;stroke-opacity:1"
       d="m 112.55357,75.135531 c -3.83248,0 -7.25776,-0.83835 -10.27584,-2.51506 -3.018057,-1.72462 -5.365447,-4.09596 -7.042167,-7.11403 -1.67672,-3.01807 -2.51507,-6.44335 -2.51507,-10.27583 0,-3.88038 0.83835,-7.32961 2.51507,-10.34767 1.67672,-3.01807 4.02411,-5.365461 7.042167,-7.042171 3.01808,-1.72462 6.44336,-2.58693 10.27584,-2.58693 3.78456,0 7.16194,0.86231 10.1321,2.58693 3.01808,1.67671 5.36547,4.024101 7.04218,7.042171 1.72462,3.01806 2.58693,6.46729 2.58693,10.34767 0,3.83248 -0.83836,7.25776 -2.51507,10.27583 -1.67672,3.01807 -4.02411,5.38941 -7.04219,7.11403 -2.97016,1.67671 -6.37148,2.51506 -10.20395,2.51506 z" />
    <path
       id="path851-1-5-5-0-5"
       d="m 68.848053,23.417832 c -1.92181,0 -3.53795,0.54809 -4.84828,1.64487 -1.22298,1.096741 -1.83451,2.546241 -1.83451,4.348048 v 18.666041 c -0.62132,2.04259 -0.9338,4.24419 -0.9338,6.60632 0,3.83248 0.83838,7.25779 2.51509,10.27585 1.67672,3.01808 4.02389,5.38917 7.04195,7.11378 3.01808,1.67672 6.44338,2.51509 10.27586,2.51509 3.83247,0 7.23387,-0.83837 10.20403,-2.51509 3.01808,-1.72461 5.36525,-4.0957 7.04196,-7.11378 1.67671,-3.01806 2.515087,-6.44337 2.515087,-10.27585 0,-3.88038 -0.862297,-7.32963 -2.586917,-10.34769 -1.6767,-3.018061 -4.02388,-5.365751 -7.04196,-7.042461 -2.97015,-1.72462 -6.34764,-2.58693 -10.1322,-2.58693 -1.95038,0 -3.79456,0.22462 -5.53403,0.67128 v -5.96656 c 0,-1.801807 -0.61155,-3.251307 -1.83451,-4.348048 -1.223,-1.09678 -2.8386,-1.64487 -4.84777,-1.64487 z"
       style="font-style:normal;font-variant:normal;font-weight:bold;font-stretch:normal;font-size:50.5546px;line-height:1.25;font-family:Comfortaa;-inkscape-font-specification:'Comfortaa, Bold';font-variant-ligatures:normal;font-variant-caps:normal;font-variant-numeric:normal;font-feature-settings:normal;text-align:start;letter-spacing:0px;word-spacing:0px;writing-mode:lr-tb;text-anchor:start;fill:#7eae0e;fill-opacity:1;stroke:none;stroke-width:1.79647;stroke-opacity:1"
       inkscape:connector-curvature="0" />
    <path
       sodipodi:nodetypes="scssscsccsccs"
       inkscape:connector-curvature="0"
       id="path851-1-5-5-4-9-0"
       style="font-style:normal;font-variant:normal;font-weight:bold;font-stretch:normal;font-size:50.5546px;line-height:1.25;font-family:Comfortaa;-inkscape-font-specification:'Comfortaa, Bold';font-variant-ligatures:normal;font-variant-caps:normal;font-variant-numeric:normal;font-feature-settings:normal;text-align:start;letter-spacing:0px;word-spacing:0px;writing-mode:lr-tb;text-anchor:start;fill:#7eae0e;fill-opacity:1;stroke:none;stroke-width:1.79647;stroke-opacity:1"
       d="m 48.753793,75.683171 c -3.83248,0 -7.25776,-0.83835 -10.27583,-2.51507 -3.01806,-1.72461 -5.36545,-4.09595 -7.04217,-7.11403 -1.676706,-3.01806 -2.515056,-6.44334 -2.515056,-10.27582 0,-3.88038 0.83835,-7.32961 2.515056,-10.34768 1.67672,-3.01806 4.02411,-5.365461 7.04217,-7.042171 3.01807,-1.72461 6.44335,-2.58693 10.27583,-2.58693 3.78456,0 7.16194,0.86232 10.1321,2.58693 3.01808,1.67671 5.36547,4.024111 7.04218,7.042171 1.72461,3.01807 2.58693,6.4673 2.58693,10.34768 0,3.83248 -0.83837,7.25776 -2.51508,10.27582 -1.67671,3.01808 -4.02409,5.38942 -7.04218,7.11403 -2.97016,1.67672 -6.37148,2.51507 -10.20395,2.51507 z" />
    <text
       id="text823-2-6"
       y="68.887856"
       x="30.905811"
       style="font-style:normal;font-variant:normal;font-weight:normal;font-stretch:normal;font-size:50.5546px;line-height:1.25;font-family:'Latin Modern Math';-inkscape-font-specification:'Latin Modern Math';letter-spacing:0px;word-spacing:0px;fill:#ffffff;fill-opacity:1;stroke:none;stroke-width:1.26386"
       xml:space="preserve"><tspan
         style="font-style:normal;font-variant:normal;font-weight:bold;font-stretch:normal;font-size:50.5546px;font-family:Comfortaa;-inkscape-font-specification:'Comfortaa, Bold';font-variant-ligatures:normal;font-variant-caps:normal;font-variant-numeric:normal;font-feature-settings:normal;text-align:start;writing-mode:lr-tb;text-anchor:start;fill:#ffffff;fill-opacity:1;stroke-width:1.26386"
         y="68.887856"
         x="30.905811"
         id="tspan821-5-4"
         sodipodi:role="line">ebso</tspan></text>
    <path
       sodipodi:nodetypes="scssscsccsccs"
       inkscape:connector-curvature="0"
       id="path851-1-0-3"
       style="font-style:normal;font-variant:normal;font-weight:bold;font-stretch:normal;font-size:50.5546px;line-height:1.25;font-family:Comfortaa;-inkscape-font-specification:'Comfortaa, Bold';font-variant-ligatures:normal;font-variant-caps:normal;font-variant-numeric:normal;font-feature-settings:normal;text-align:start;letter-spacing:0px;word-spacing:0px;writing-mode:lr-tb;text-anchor:start;fill:#8db7f0;fill-opacity:1;stroke:none;stroke-width:1.39088;stroke-opacity:1"
       d="m 140.78404,144.40278 c -3.51302,0 -6.65279,-0.54823 -9.41929,-1.64469 -2.76651,-1.1278 -4.91825,-2.67853 -6.45522,-4.65214 -1.53694,-1.97362 -2.30541,-4.21355 -2.30541,-6.71977 0,-2.53752 0.76847,-4.79309 2.30541,-6.76672 1.53697,-1.97362 3.68871,-3.50867 6.45522,-4.60514 2.7665,-1.12779 5.90627,-1.69169 9.41929,-1.69169 3.46911,0 6.56498,0.5639 9.28759,1.69169 2.7665,1.09647 4.91821,2.63152 6.45515,4.60514 1.58088,1.97363 2.37133,4.2292 2.37133,6.76672 0,2.50622 -0.76849,4.74615 -2.30543,6.71977 -1.53696,1.97361 -3.6887,3.52434 -6.4552,4.65214 -2.72258,1.09646 -5.84041,1.64469 -9.35344,1.64469 z" />
    <rect
       y="182.08653"
       x="182.68616"
       height="31.010378"
       width="24.633245"
       id="rect4652"
       style="opacity:0;fill:#8db7f0;fill-opacity:1;fill-rule:evenodd;stroke:#000000;stroke-width:560;stroke-miterlimit:4;stroke-dasharray:none;stroke-dashoffset:0;stroke-opacity:1" />
    <rect
       y="192.96518"
       x="183.81152"
       height="25.008371"
       width="20.506863"
       id="rect4654"
       style="opacity:0;fill:#8db7f0;fill-opacity:1;fill-rule:evenodd;stroke:#000000;stroke-width:560;stroke-miterlimit:4;stroke-dasharray:none;stroke-dashoffset:0;stroke-opacity:1" />
    <rect
       y="174.20889"
       x="179.81018"
       height="33.886345"
       width="37.762642"
       id="rect4656"
       style="opacity:0;fill:#8db7f0;fill-opacity:1;fill-rule:evenodd;stroke:#000000;stroke-width:560;stroke-miterlimit:4;stroke-dasharray:none;stroke-dashoffset:0;stroke-opacity:1" />
    <rect
       y="156.30963"
       x="169.58891"
       height="33.157295"
       width="33.61359"
       id="rect839"
       style="opacity:0;fill:#8db7f0;fill-opacity:1;fill-rule:evenodd;stroke:#000000;stroke-width:560;stroke-miterlimit:4;stroke-dasharray:none;stroke-dashoffset:0;stroke-opacity:1" />
    <rect
       y="162.69774"
       x="185.71127"
       height="19.388794"
       width="21.608114"
       id="rect841"
       style="opacity:0;fill:#8db7f0;fill-opacity:1;fill-rule:evenodd;stroke:#000000;stroke-width:560;stroke-miterlimit:4;stroke-dasharray:none;stroke-dashoffset:0;stroke-opacity:1" />
    <rect
       y="173.08023"
       x="194.67993"
       height="19.388794"
       width="21.608114"
       id="rect841-2"
       style="opacity:0;fill:#8db7f0;fill-opacity:1;fill-rule:evenodd;stroke:#000000;stroke-width:560;stroke-miterlimit:4;stroke-dasharray:none;stroke-dashoffset:0;stroke-opacity:1" />
    <rect
       y="156.61382"
       x="192.85986"
       height="59.774399"
       width="30.723717"
       id="rect873"
       style="opacity:0;fill:#8db7f0;fill-opacity:1;fill-rule:evenodd;stroke:#000000;stroke-width:560;stroke-miterlimit:4;stroke-dasharray:none;stroke-dashoffset:0;stroke-opacity:1" />
    <path
       sodipodi:nodetypes="cccc"
       inkscape:connector-curvature="0"
       id="path875"
       d="m 159.68679,116.48108 -0.83938,15.61386 -28.38237,3.28949 z"
       style="fill:#8db7f0;fill-opacity:1;stroke:none;stroke-width:0.266052px;stroke-linecap:butt;stroke-linejoin:miter;stroke-opacity:1" />
    <g
       style="fill:#996532;fill-opacity:1"
       id="g1108">
      <g
         style="fill:#996532;fill-opacity:1"
         id="g1089">
        <path
           id="path851-1-5-5-0-5-9-0-8-6"
           style="font-style:normal;font-variant:normal;font-weight:bold;font-stretch:normal;font-size:50.5546px;line-height:1.25;font-family:Comfortaa;-inkscape-font-specification:'Comfortaa, Bold';font-variant-ligatures:normal;font-variant-caps:normal;font-variant-numeric:normal;font-feature-settings:normal;text-align:start;letter-spacing:0px;word-spacing:0px;writing-mode:lr-tb;text-anchor:start;fill:#996532;fill-opacity:1;stroke:none;stroke-width:1.79647;stroke-opacity:1"
           d="m 119.26839,168.28668 c -1.9218,0 -3.53795,0.54808 -4.84828,1.64486 -1.22297,1.09674 -1.83451,2.54624 -1.83451,4.34805 v 4.3863 h 13.36507 v -4.3863 c 0,-1.80181 -0.61155,-3.25131 -1.83451,-4.34805 -1.223,-1.09678 -2.83859,-1.64486 -4.84777,-1.64486 z"
           inkscape:connector-curvature="0" />
        <path
           transform="scale(0.26458333)"
           d="M 405.76562 623.20703 C 398.50213 623.20703 392.39383 625.27852 387.44141 629.42383 C 382.81916 633.56899 380.50781 639.04743 380.50781 645.85742 L 380.50781 662.43555 L 380.50781 706.35938 L 430.80859 706.35938 L 430.80859 662.43555 L 431.02148 662.43555 L 431.02148 645.85742 C 431.02148 639.04743 428.7101 633.56899 424.08789 629.42383 C 419.46553 625.27852 413.35938 623.20703 405.76562 623.20703 z "
           style="font-style:normal;font-variant:normal;font-weight:bold;font-stretch:normal;font-size:50.5546px;line-height:1.25;font-family:Comfortaa;-inkscape-font-specification:'Comfortaa, Bold';font-variant-ligatures:normal;font-variant-caps:normal;font-variant-numeric:normal;font-feature-settings:normal;text-align:start;letter-spacing:0px;word-spacing:0px;writing-mode:lr-tb;text-anchor:start;fill:#996532;fill-opacity:1;stroke:none;stroke-width:6.78981;stroke-opacity:1"
           id="path851-1-5-5-0-5-9-0-8" />
        <path
           id="path851-1-5-5-0-5-9-9"
           d="m 40.9446,225.19086 c -1.9218,0 -3.53795,-0.54809 -4.84828,-1.64487 -1.22297,-1.09674 -1.83451,-2.54624 -1.83451,-4.34805 V 200.5319 c -0.62131,-2.04259 -0.9338,-4.24419 -0.9338,-6.60632 0,-3.83248 0.83838,-7.25779 2.51509,-10.27585 1.67672,-3.01808 4.0239,-5.38917 7.04196,-7.11378 3.01807,-1.67672 6.44338,-2.51509 10.27585,-2.51509 3.83248,0 7.233869,0.83837 10.204039,2.51509 3.018063,1.72461 5.365241,4.0957 7.041959,7.11378 1.676701,3.01806 2.515068,6.44337 2.515068,10.27585 0,3.88038 -0.862297,7.32963 -2.586895,10.34769 -1.676721,3.01806 -4.023889,5.36575 -7.041971,7.04246 -2.970139,1.72462 -6.34764,2.58693 -10.1322,2.58693 -1.95037,0 -3.79455,-0.22462 -5.53403,-0.67128 v 5.96656 c 0,1.80181 -0.61155,3.25131 -1.83451,4.34805 -1.223,1.09678 -2.83859,1.64487 -4.84777,1.64487 z"
           style="font-style:normal;font-variant:normal;font-weight:bold;font-stretch:normal;font-size:50.5546px;line-height:1.25;font-family:Comfortaa;-inkscape-font-specification:'Comfortaa, Bold';font-variant-ligatures:normal;font-variant-caps:normal;font-variant-numeric:normal;font-feature-settings:normal;text-align:start;letter-spacing:0px;word-spacing:0px;writing-mode:lr-tb;text-anchor:start;fill:#996532;fill-opacity:1;stroke:none;stroke-width:1.79647;stroke-opacity:1"
           inkscape:connector-curvature="0" />
        <path
           d="m 139.15319,173.10483 c -3.83249,0 -7.25777,0.83835 -10.27584,2.51506 -3.01806,1.72462 -5.36546,4.09596 -7.04218,7.11403 -1.67671,3.01807 -2.51506,6.44335 -2.51506,10.27583 0,3.88038 0.83835,7.32961 2.51506,10.34767 1.67672,3.01806 4.02412,5.36546 7.04218,7.04217 3.01807,1.72462 6.44335,2.58693 10.27584,2.58693 3.78456,0 7.16194,-0.86231 10.13211,-2.58693 3.01807,-1.67671 5.36545,-4.02411 7.04216,-7.04217 1.72461,-3.01806 2.58694,-6.46729 2.58694,-10.34767 0,-3.83248 -0.83838,-7.25776 -2.51509,-10.27583 -1.67669,-3.01807 -4.02409,-5.38941 -7.04216,-7.11403 -2.97017,-1.67671 -6.3715,-2.51506 -10.20396,-2.51506 z"
           style="font-style:normal;font-variant:normal;font-weight:bold;font-stretch:normal;font-size:50.5546px;line-height:1.25;font-family:Comfortaa;-inkscape-font-specification:'Comfortaa, Bold';font-variant-ligatures:normal;font-variant-caps:normal;font-variant-numeric:normal;font-feature-settings:normal;text-align:start;letter-spacing:0px;word-spacing:0px;writing-mode:lr-tb;text-anchor:start;fill:#996532;fill-opacity:1;stroke:none;stroke-width:1.79647;stroke-opacity:1"
           id="path851-1-0-0-6"
           inkscape:connector-curvature="0"
           sodipodi:nodetypes="scssscsccsccs" />
        <path
           d="m 115.72855,214.56831 c -3.83248,0 -7.25776,-0.83835 -10.27584,-2.51506 -3.01805,-1.72462 -5.36545,-4.09596 -7.042163,-7.11403 -1.67672,-3.01807 -2.51507,-6.44335 -2.51507,-10.27583 0,-3.88038 0.83835,-7.32961 2.51507,-10.34767 1.676713,-3.01807 4.024113,-5.36546 7.042163,-7.04217 3.01808,-1.72462 6.44336,-2.58693 10.27584,-2.58693 3.78456,0 7.16194,0.86231 10.1321,2.58693 3.01808,1.67671 5.36547,4.0241 7.04219,7.04217 1.72461,3.01806 2.58692,6.46729 2.58692,10.34767 0,3.83248 -0.83836,7.25776 -2.51507,10.27583 -1.67672,3.01807 -4.02411,5.38941 -7.04219,7.11403 -2.97016,1.67671 -6.37148,2.51506 -10.20395,2.51506 z"
           style="font-style:normal;font-variant:normal;font-weight:bold;font-stretch:normal;font-size:50.5546px;line-height:1.25;font-family:Comfortaa;-inkscape-font-specification:'Comfortaa, Bold';font-variant-ligatures:normal;font-variant-caps:normal;font-variant-numeric:normal;font-feature-settings:normal;text-align:start;letter-spacing:0px;word-spacing:0px;writing-mode:lr-tb;text-anchor:start;fill:#996532;fill-opacity:1;stroke:none;stroke-width:1.79647;stroke-opacity:1"
           id="path851-1-5-3-8-3"
           inkscape:connector-curvature="0"
           sodipodi:nodetypes="scssscsccsccs" />
        <path
           inkscape:connector-curvature="0"
           style="font-style:normal;font-variant:normal;font-weight:bold;font-stretch:normal;font-size:50.5546px;line-height:1.25;font-family:Comfortaa;-inkscape-font-specification:'Comfortaa, Bold';font-variant-ligatures:normal;font-variant-caps:normal;font-variant-numeric:normal;font-feature-settings:normal;text-align:start;letter-spacing:0px;word-spacing:0px;writing-mode:lr-tb;text-anchor:start;fill:#996532;fill-opacity:1;stroke:none;stroke-width:1.79647;stroke-opacity:1"
           d="m 72.552191,224.60395 c -1.9218,0 -3.53795,-0.54809 -4.84828,-1.64487 -1.22297,-1.09674 -1.83451,-2.54624 -1.83451,-4.34805 v -18.66604 c -0.62131,-2.04259 -0.9338,-4.24419 -0.9338,-6.60632 0,-3.83248 0.83838,-7.25779 2.51509,-10.27585 1.67672,-3.01808 4.0239,-5.38917 7.04196,-7.11378 3.01807,-1.67672 6.44338,-2.51509 10.27585,-2.51509 3.83248,0 7.23387,0.83837 10.20404,2.51509 3.018051,1.72461 5.365219,4.0957 7.041939,7.11378 1.67671,3.01806 2.51508,6.44337 2.51508,10.27585 0,3.88038 -0.8623,7.32963 -2.58691,10.34769 -1.67672,3.01806 -4.023878,5.36575 -7.041949,7.04246 -2.97014,1.72462 -6.34764,2.58693 -10.1322,2.58693 -1.95037,0 -3.79455,-0.22462 -5.53403,-0.67128 v 5.96656 c 0,1.80181 -0.61155,3.25131 -1.83451,4.34805 -1.223,1.09678 -2.83859,1.64487 -4.84777,1.64487 z"
           id="path851-1-5-5-0-5-9" />
      </g>
    </g>
    <text
       id="text823-2-6-8"
       y="207.50871"
       x="33.907188"
       style="font-style:normal;font-variant:normal;font-weight:normal;font-stretch:normal;font-size:50.5547px;line-height:1.25;font-family:'Latin Modern Math';-inkscape-font-specification:'Latin Modern Math';letter-spacing:0px;word-spacing:0px;fill:#ffffff;fill-opacity:1;stroke:none;stroke-width:1.26386"
       xml:space="preserve"><tspan
         style="font-style:normal;font-variant:normal;font-weight:bold;font-stretch:normal;font-size:50.5547px;font-family:Comfortaa;-inkscape-font-specification:'Comfortaa, Bold';font-variant-ligatures:normal;font-variant-caps:normal;font-variant-numeric:normal;font-feature-settings:normal;text-align:start;writing-mode:lr-tb;text-anchor:start;fill:#ffffff;fill-opacity:1;stroke-width:1.26386"
         y="207.50871"
         x="33.907188"
         id="tspan821-5-4-1"
         sodipodi:role="line"
         dx="0 -3.7309127 -0.47966442 -5.5963712 -1.8072639">ppltr</tspan></text>
  </g>
  <g
     id="layer1"
     inkscape:groupmode="layer"
     inkscape:label="Layer 1">
    <text
       id="text817"
       y="53.973503"
       x="27.3606"
       style="font-style:normal;font-variant:normal;font-weight:normal;font-stretch:normal;font-size:10.58333302px;line-height:1.25;font-family:'Latin Modern Math';-inkscape-font-specification:'Latin Modern Math';letter-spacing:0px;word-spacing:0px;fill:#000000;fill-opacity:1;stroke:none;stroke-width:0.26458332"
       xml:space="preserve"><tspan
         style="stroke-width:0.26458332"
         y="63.826588"
         x="27.3606"
         id="tspan815"
         sodipodi:role="line" /></text>
    <ellipse
       ry="31.489155"
       rx="32.85825"
       cy="73.913864"
       cx="35.048798"
       id="path819"
       style="opacity:0;vector-effect:none;fill:#ff53ff;fill-opacity:0;fill-rule:evenodd;stroke:none;stroke-width:560;stroke-linecap:butt;stroke-linejoin:miter;stroke-miterlimit:4;stroke-dasharray:none;stroke-dashoffset:0;stroke-opacity:1" />
    <flowRoot
       transform="scale(0.26458333)"
       style="font-style:normal;font-variant:normal;font-weight:normal;font-stretch:normal;font-size:40px;line-height:1.25;font-family:'Latin Modern Math';-inkscape-font-specification:'Latin Modern Math';letter-spacing:0px;word-spacing:0px;fill:#000000;fill-opacity:1;stroke:none"
       id="flowRoot843"
       xml:space="preserve"><flowRegion
         id="flowRegion845"><rect
           y="387.73679"
           x="-109.69998"
           height="71.408478"
           width="490.5452"
           id="rect847" /></flowRegion><flowPara
         id="flowPara849" /></flowRoot>
    <path
       sodipodi:nodetypes="scssscsccsccs"
       inkscape:connector-curvature="0"
       id="path851-1-5-3-2"
       style="font-style:normal;font-variant:normal;font-weight:bold;font-stretch:normal;font-size:50.5546px;line-height:1.25;font-family:Comfortaa;-inkscape-font-specification:'Comfortaa, Bold';font-variant-ligatures:normal;font-variant-caps:normal;font-variant-numeric:normal;font-feature-settings:normal;text-align:start;letter-spacing:0px;word-spacing:0px;writing-mode:lr-tb;text-anchor:start;fill:#8db7f0;fill-opacity:1;stroke:none;stroke-width:1.79647;stroke-opacity:1"
       d="m 82.654192,132.27346 c -3.832484,0 -7.257764,-0.83835 -10.275844,-2.51506 -3.01806,-1.72462 -5.365452,-4.09596 -7.042172,-7.11403 -1.676712,-3.01807 -2.515062,-6.44335 -2.515062,-10.27583 0,-3.88038 0.83835,-7.32961 2.515062,-10.34767 1.67672,-3.018077 4.024112,-5.365467 7.042172,-7.042177 3.01808,-1.724617 6.44336,-2.586927 10.275844,-2.586927 3.78456,0 7.16194,0.86231 10.1321,2.586927 3.01808,1.67671 5.36547,4.0241 7.042191,7.042177 1.724617,3.01806 2.586937,6.46729 2.586937,10.34767 0,3.83248 -0.83837,7.25776 -2.515077,10.27583 -1.67673,3.01807 -4.024121,5.38941 -7.042201,7.11403 -2.97016,1.67671 -6.37148,2.51506 -10.20395,2.51506 z" />
    <text
       id="text823-2"
       y="126.39491"
       x="36.275471"
       style="font-style:normal;font-variant:normal;font-weight:normal;font-stretch:normal;font-size:50.5546px;line-height:1.25;font-family:'Latin Modern Math';-inkscape-font-specification:'Latin Modern Math';letter-spacing:0px;word-spacing:0px;fill:#ffffff;fill-opacity:1;stroke:none;stroke-width:1.26386"
       xml:space="preserve"><tspan
         dx="0 1.699818 0.28330299"
         style="font-style:normal;font-variant:normal;font-weight:bold;font-stretch:normal;font-size:50.5546px;font-family:Comfortaa;-inkscape-font-specification:'Comfortaa, Bold';font-variant-ligatures:normal;font-variant-caps:normal;font-variant-numeric:normal;font-feature-settings:normal;text-align:start;writing-mode:lr-tb;text-anchor:start;fill:#ffffff;fill-opacity:1;stroke-width:1.26386"
         y="126.39491"
         x="36.275471"
         id="tspan821-5"
         sodipodi:role="line">sorg</tspan></text>
  </g>
</svg>
